<svg id="svg" xmlns="http://www.w3.org/2000/svg" xmlns:xlink="http://www.w3.org/1999/xlink" width="400" height="417.5438596491228" viewBox="0, 0, 400,417.5438596491228"><g id="svgg"><path id="path0" d="M191.667 22.750 L 184.211 29.424 184.211 148.045 L 184.211 266.667 199.123 266.667 L 214.035 266.667 214.008 148.684 C 213.993 83.794,213.385 29.912,212.656 28.947 C 211.927 27.982,208.584 24.692,205.227 21.634 L 199.123 16.076 191.667 22.750 M149.454 64.428 L 135.088 79.531 135.088 214.804 L 135.088 350.077 149.653 364.567 C 157.664 372.536,164.788 378.487,165.484 377.791 C 167.179 376.096,166.846 51.195,165.149 50.146 C 164.418 49.694,157.355 56.121,149.454 64.428 M231.631 213.898 C 231.557 304.675,232.107 378.947,232.853 378.946 C 233.600 378.946,240.724 372.251,248.684 364.069 L 263.158 349.193 263.158 214.368 L 263.158 79.544 250.012 66.313 C 242.782 59.035,235.719 52.129,234.316 50.965 C 232.090 49.117,231.750 69.753,231.631 213.898 M101.754 210.419 L 86.842 224.798 86.255 262.492 L 85.669 300.187 100.619 315.408 C 108.842 323.780,116.023 330.176,116.578 329.621 C 117.133 329.066,117.380 298.783,117.127 262.326 L 116.667 196.039 101.754 210.419 M280.702 262.820 C 280.702 339.971,278.857 334.685,298.684 314.357 L 310.526 302.215 310.526 263.788 L 310.526 225.361 295.614 210.526 L 280.702 195.692 280.702 262.820 " stroke="none" fill="#34EEFD" fill-rule="evenodd"></path></g></svg>